<svg width="126" height="56" viewBox="0 0 126 56" fill="none" xmlns="http://www.w3.org/2000/svg">
<g id="Logo" clip-path="url(#clip0_13527_24485)">
<path id="Icon" d="M69.5996 56H125.999V0H69.5996V56ZM107.201 49.7794H75.8683V6.22431H119.734V37.3346H107.201V49.7794ZM119.734 49.7794H113.465V43.5551H119.734V49.7794Z" fill="#1C1E42"/>
<g id="Text">
<path id="Vector" d="M57.8072 4.88754C57.8072 4.88754 58.1106 5.87786 59.3355 6.1678C60.2153 6.37866 60.5187 5.80631 60.5187 5.80631C59.5441 5.4147 59.802 4.15704 60.6325 4.01772C61.3492 3.88969 62.6614 4.57124 62.0508 6.09249C61.4175 7.67022 59.7261 7.64763 58.7591 6.84935C57.6669 5.9494 57.8072 4.88754 57.8072 4.88754ZM59.802 3.49055C59.802 3.49055 59.5138 2.63956 60.4125 1.87893C61.2013 1.21244 62.1229 1.25763 62.7714 1.41954C62.8965 1.45343 62.9648 1.27646 62.851 1.21244C61.2468 0.357683 59.0928 0.602439 57.9361 1.89399C56.442 3.56209 56.5671 5.88915 58.1599 7.21083C59.7375 8.52121 61.7398 8.1296 62.5893 6.85688C63.4312 5.57662 63.1165 4.10809 61.8802 3.46043C60.6477 2.81277 59.8058 3.48302 59.8058 3.48302" fill="#1C1E42"/>
<path id="Vector_2" d="M18.9434 42.5838V34.9775H20.1645L22.8077 38.5246L25.4662 34.9775H26.6873V42.5838H25.2879V37.2105L22.9936 40.3207H22.6181L20.3465 37.1992V42.5838H18.9434Z" fill="#1C1E42"/>
<path id="Vector_3" d="M28.3594 35.1621C28.3594 34.7441 28.6703 34.3901 29.2051 34.3901C29.7398 34.3901 30.0621 34.7403 30.0621 35.1621C30.0621 35.5838 29.7512 35.9377 29.2013 35.9377C28.6514 35.9377 28.3632 35.5913 28.3632 35.1621M28.53 36.8339H29.8915V42.5838H28.53V36.8339Z" fill="#1C1E42"/>
<path id="Vector_4" d="M31.2109 40.7537L32.5155 40.7612C32.5383 41.2884 32.9327 41.6838 33.7101 41.6838C34.4155 41.6838 34.7416 41.3938 34.7416 40.957C34.7416 40.4713 34.3093 40.332 33.5205 40.2115C32.4055 40.0646 31.4461 39.6241 31.4461 38.4342C31.4461 37.3761 32.2121 36.6606 33.6266 36.6606C35.0412 36.6606 35.9665 37.41 35.9665 38.5057L34.6316 38.4944C34.6013 38.0689 34.2638 37.7677 33.6342 37.7677C33.0502 37.7677 32.7885 38.0576 32.7885 38.4041C32.7885 38.8333 33.0009 38.9764 34.0021 39.1308C35.2005 39.3078 36.1372 39.658 36.1372 40.8742C36.1372 42.0904 35.1019 42.7532 33.7025 42.7532C32.0035 42.7532 31.2147 41.7628 31.2147 40.7499" fill="#1C1E42"/>
<path id="Vector_5" d="M41.1735 42.5835L39.668 39.9929L38.754 40.9832V42.5835H37.3926V34.71H38.754V39.5298L40.7943 36.8337H42.4553L40.6578 39.1118L42.7056 42.5835H41.1735Z" fill="#1C1E42"/>
<path id="Vector_6" d="M52.1099 42.5835L51.5032 41.1112H47.9763L47.3695 42.5835H45.8867L49.0761 34.9697H50.4034L53.5927 42.5835H52.1099ZM48.4541 39.9477H51.0215L49.7814 36.9504L49.7473 36.7659H49.7283L49.6828 36.9504L48.4503 39.9477H48.4541Z" fill="#1C1E42"/>
<path id="Vector_7" d="M54.582 42.5834V36.8335H55.8904V37.8728C56.1596 37.2402 56.6906 36.8335 57.4452 36.8335H58.0672V37.997H57.5211C56.5844 37.997 55.9511 38.6861 55.9511 39.9099V42.5834H54.5896H54.582Z" fill="#1C1E42"/>
<path id="Vector_8" d="M61.8789 42.5835C61.0067 42.5835 59.9562 42.2935 59.9562 40.3957V37.9971H58.7578V36.8336H59.9562V35.1505L61.3214 35.1392V36.8336H63.0545V37.9971H61.3214V40.4598C61.3214 41.2656 61.7272 41.4614 62.1595 41.4614H63.0545V42.5835H61.8789Z" fill="#1C1E42"/>
<path id="Vector_9" d="M20.3465 46.4355H18.9434V54.0418H20.3465V46.4355Z" fill="#1C1E42"/>
<path id="Vector_10" d="M21.916 54.0422V48.2924H23.213V49.1885C23.5467 48.5635 24.3014 48.1191 25.1888 48.1191C26.7436 48.1191 27.5135 49.1358 27.5135 50.9432V54.0422H26.152V50.9734C26.152 49.8324 25.6363 49.3693 24.8096 49.3693C23.9828 49.3693 23.2775 49.983 23.2775 51.1089V54.046H21.916V54.0422Z" fill="#1C1E42"/>
<path id="Vector_11" d="M28.5332 52.2122L29.8378 52.2197C29.8605 52.7469 30.2549 53.1423 31.0323 53.1423C31.7377 53.1423 32.0639 52.8523 32.0639 52.4155C32.0639 51.9298 31.6315 51.7905 30.8427 51.67C29.7278 51.5231 28.7683 51.0826 28.7683 49.8927C28.7683 48.8346 29.5344 48.1191 30.9489 48.1191C32.3635 48.1191 33.2888 48.8685 33.2888 49.9642L31.9539 49.9529C31.9235 49.5274 31.586 49.2262 30.9565 49.2262C30.3725 49.2262 30.1108 49.5161 30.1108 49.8625C30.1108 50.2918 30.3232 50.4349 31.3244 50.5893C32.5227 50.7663 33.4594 51.1164 33.4594 52.3327C33.4594 53.5489 32.4241 54.2117 31.0248 54.2117C29.3258 54.2117 28.537 53.2213 28.537 52.2084" fill="#1C1E42"/>
<path id="Vector_12" d="M36.832 54.042C35.9598 54.042 34.9093 53.752 34.9093 51.8542V49.4556H33.7109V48.2921H34.9093V46.609L36.2746 46.5977V48.2921H38.0076V49.4556H36.2746V51.9183C36.2746 52.7241 36.6803 52.9199 37.1127 52.9199H38.0076V54.042H36.832Z" fill="#1C1E42"/>
<path id="Vector_13" d="M38.8066 46.6201C38.8066 46.2021 39.1176 45.8481 39.6523 45.8481C40.187 45.8481 40.5094 46.2021 40.5094 46.6201C40.5094 47.038 40.1984 47.3995 39.6485 47.3995C39.0987 47.3995 38.8104 47.0531 38.8104 46.6201M38.9811 48.2919H40.3425V54.0418H38.9811V48.2919Z" fill="#1C1E42"/>
<path id="Vector_14" d="M44.1797 54.042C43.3074 54.042 42.257 53.752 42.257 51.8542V49.4556H41.0586V48.2921H42.257V46.609L43.6222 46.5977V48.2921H45.3553V49.4556H43.6222V51.9183C43.6222 52.7241 44.028 52.9199 44.4603 52.9199H45.3553V54.042H44.1797Z" fill="#1C1E42"/>
<path id="Vector_15" d="M46.2012 51.3608V48.292H47.555V51.3232C47.555 52.3851 48.0177 52.9574 48.9241 52.9574C49.8304 52.9574 50.2893 52.3775 50.2893 51.3232V48.292H51.647V51.3608C51.647 53.4093 50.4637 54.2151 48.9316 54.2151C47.3995 54.2151 46.205 53.4093 46.205 51.3608" fill="#1C1E42"/>
<path id="Vector_16" d="M55.3672 54.042C54.4949 54.042 53.4445 53.752 53.4445 51.8542V49.4556H52.2461V48.2921H53.4445V46.609L54.8097 46.5977V48.2921H56.5428V49.4556H54.8097V51.9183C54.8097 52.7241 55.2155 52.9199 55.6478 52.9199H56.5428V54.042H55.3672Z" fill="#1C1E42"/>
<path id="Vector_17" d="M63.0106 51.5114H58.4901C58.6304 52.449 59.2941 52.995 60.0943 52.995C60.7807 52.995 61.2054 52.7088 61.4026 52.2231H62.8892C62.5972 53.2586 61.5657 54.2037 60.1246 54.2037C58.3839 54.2037 57.1211 52.8331 57.1211 51.1537C57.1211 49.4743 58.3839 48.1074 60.1246 48.1074C61.8653 48.1074 63.0409 49.4705 63.0409 51.0558C63.0409 51.2026 63.0371 51.3005 63.0106 51.5152M61.6491 50.4684C61.5922 49.8245 60.9172 49.2898 60.117 49.2898C59.4306 49.2898 58.7746 49.6588 58.547 50.4684H61.6491Z" fill="#1C1E42"/>
<path id="Vector_18" d="M41.0665 18.9592H45.1736C46.1634 18.9592 46.9674 18.6278 47.5097 18.0028C47.8889 18.6467 48.5677 18.9592 49.5727 18.9592H52.1477C52.709 18.9592 52.9896 18.658 53.1641 18.4245C53.3385 18.658 53.6229 18.9592 54.1804 18.9592H56.8616V18.9479C57.548 18.9215 58.1244 18.6655 58.4961 18.1986C59.0611 18.7032 59.7475 18.978 60.4491 18.978C61.7423 18.978 63.0506 18.0216 63.0506 16.1954C63.0506 14.6026 61.9054 13.4051 60.3884 13.4051C59.1483 13.4051 58.2571 14.2373 57.8779 15.7548C57.8134 16.0184 57.7717 16.2142 57.7376 16.3799C57.6807 16.666 57.639 16.8543 57.5214 17.1367C57.4077 17.4154 57.127 17.5735 56.7516 17.5735H55.064L56.0993 16.6472L56.1107 16.2631C56.1107 14.6327 54.844 13.4051 53.1603 13.4051C51.4765 13.4051 50.2212 14.6327 50.2212 16.2631V16.6472L51.2565 17.5735H49.5689C48.5867 17.5735 48.1999 17.212 48.1885 16.2933C48.1999 16.1615 48.2075 16.0184 48.2075 15.8791C48.2075 13.8608 46.4023 12.396 43.9108 12.396C43.0272 12.396 42.1208 12.5654 41.2106 12.8968L41.112 12.9345L41.5481 14.2561L41.6543 14.2185C42.4204 13.9361 43.1599 13.7892 43.8501 13.7892C45.5528 13.7892 46.7854 14.6703 46.7854 15.8828C46.7854 16.8204 46.3758 17.389 45.6021 17.5396V16.7941C45.6021 15.7171 44.8626 14.6289 43.4519 14.6289C42.0412 14.6289 41.3016 15.7397 41.3016 16.8355C41.3016 17.0991 41.3396 17.3476 41.4154 17.581H39.4775V16.5794C39.4775 14.5385 38.1237 13.4127 35.67 13.4127H34.8661V14.8247H35.6511C37.4069 14.8247 38.0592 15.3105 38.0592 16.6096V17.581H34.3086V18.963H41.0665V18.9592ZM43.4367 16.0071C43.9373 16.0071 44.199 16.4213 44.199 16.8317V17.5773H43.4595C42.9399 17.5773 42.7086 17.1819 42.7086 16.7903C42.7086 16.3987 42.9361 16.0071 43.4405 16.0071M54.6961 16.2029L53.1716 17.5999L51.6471 16.2029C51.7116 15.3858 52.3335 14.821 53.1716 14.821C54.0097 14.821 54.6355 15.3858 54.6961 16.2029ZM59.0649 16.8995C59.1104 16.6547 59.1635 16.3949 59.2735 15.9995C59.5086 15.1711 59.8461 14.821 60.3998 14.821C61.1279 14.821 61.6399 15.3895 61.6399 16.1991C61.6399 17.1668 61.0331 17.5999 60.4302 17.5999C59.9561 17.5999 59.4631 17.3476 59.0687 16.9033" fill="#1C1E42"/>
<path id="Vector_19" d="M3.42725 26.4038C3.86716 26.4038 4.22364 26.0498 4.22364 25.613C4.22364 25.1762 3.86716 24.8223 3.42725 24.8223C2.98734 24.8223 2.63086 25.1762 2.63086 25.613C2.63086 26.0498 2.98734 26.4038 3.42725 26.4038Z" fill="#1C1E42"/>
<path id="Vector_20" d="M5.4382 28.7909C5.4382 30.3197 4.80109 31.0314 3.42826 31.0314C2.05544 31.0314 1.38041 30.3724 1.38041 29.0168C1.38041 28.5349 1.46005 27.9926 1.61553 27.409L1.65346 27.2734H0.32614L0.303386 27.3487C0.102393 28.0265 0 28.6591 0 29.2315C0 32.1685 2.62429 32.3982 3.42826 32.3982C5.60885 32.3982 6.85653 31.0803 6.85653 28.7834V25.5752H5.43441V28.7834L5.4382 28.7909Z" fill="#1C1E42"/>
<path id="Vector_21" d="M15.9956 24.4116C16.4355 24.4116 16.792 24.0576 16.792 23.6208C16.792 23.184 16.4355 22.8301 15.9956 22.8301C15.5557 22.8301 15.1992 23.184 15.1992 23.6208C15.1992 24.0576 15.5557 24.4116 15.9956 24.4116Z" fill="#1C1E42"/>
<path id="Vector_22" d="M21.3159 24.0351C21.7558 24.0351 22.1123 23.6812 22.1123 23.2444C22.1123 22.8076 21.7558 22.4536 21.3159 22.4536C20.876 22.4536 20.5195 22.8076 20.5195 23.2444C20.5195 23.6812 20.876 24.0351 21.3159 24.0351Z" fill="#1C1E42"/>
<path id="Vector_23" d="M30.2694 28.5763H28.9762C27.9978 28.5763 27.5958 28.196 27.5958 27.266V22.4763H26.1737V27.266C26.1737 28.1847 25.7869 28.5763 24.8843 28.5763H23.9931V24.4042H22.1083C18.8621 24.4042 18.6118 26.5543 18.6118 27.2132C18.6118 27.714 18.7332 28.181 18.9607 28.5726H18.0847C17.1062 28.5726 16.7043 28.1923 16.7043 27.2622V25.0858H15.2821V27.2622C15.2821 28.181 14.8953 28.5726 13.9927 28.5726H13.1015V24.4004H11.2585C8.68727 24.4004 7.76953 25.8577 7.76953 27.2208C7.76953 27.8609 8.01982 29.9507 11.2395 29.9507H11.5846C11.3457 30.6323 10.7541 30.9749 9.82497 30.9749C9.53676 30.9749 9.24475 30.9523 8.95274 30.9072L8.82759 30.8883V32.2514L8.91481 32.2665C9.34335 32.3456 9.72637 32.387 10.0904 32.387C11.7363 32.387 12.783 31.5247 13.0447 29.9507H14.0989V29.9432C14.9484 29.9206 15.6348 29.642 16.0899 29.1148C16.4919 29.6759 17.1442 29.9507 18.0847 29.9507H24.9867V29.9432C25.8362 29.9206 26.5226 29.642 26.9777 29.1148C27.3797 29.6759 28.0319 29.9507 28.9724 29.9507H31.6877V22.4688H30.2656V28.5688L30.2694 28.5763ZM22.5824 25.8162V28.5763H22.1121C20.7393 28.5763 20.015 28.1019 20.015 27.2057C20.015 26.5731 20.3752 25.8162 22.0932 25.8162H22.5862H22.5824ZM11.2433 25.8162H11.706V28.5763H11.2661C9.89323 28.5763 9.13856 28.0868 9.13856 27.1982C9.13856 26.3095 9.88565 25.82 11.2471 25.82" fill="#1C1E42"/>
<path id="Vector_24" d="M37.0312 26.1057H40.0082V25.0627H38.844C38.4723 25.0627 38.222 24.8481 38.222 24.5242C38.222 24.1213 38.6089 24.0761 38.7719 24.0761C38.9122 24.0761 39.0639 24.11 39.2422 24.1778L39.3332 24.2117L39.8376 23.2364L39.739 23.1875C39.4015 23.0256 39.0412 22.939 38.6923 22.939C37.729 22.939 37.0312 23.549 37.0312 24.3924C37.0312 24.656 37.0919 24.8782 37.2133 25.0589H37.0312V26.102V26.1057Z" fill="#1C1E42"/>
<path id="Vector_25" d="M60.3886 24.5434C59.1485 24.5434 58.2573 25.3793 57.8781 26.893C57.8136 27.1566 57.7719 27.3524 57.7378 27.5181C57.6809 27.8043 57.6392 27.9925 57.5216 28.2749C57.4078 28.5536 57.1272 28.7117 56.7518 28.7117H54.7305V24.5434H53.3083V28.7117H52.5195C51.7914 28.7117 51.4387 28.2825 51.4387 27.4013V24.8672H50.0166V27.4013C50.0166 28.2712 49.717 28.7117 49.1254 28.7117H48.1432V24.8672H46.721V28.7117H44.4646C44.4381 28.7117 44.4191 28.723 44.3964 28.723V28.7117H44.2902C43.3117 28.7117 42.9098 28.3314 42.9098 27.4013V22.6079H41.4876V27.4013C41.4876 28.3201 41.1008 28.7117 40.1982 28.7117H37.536C36.2428 28.7117 35.5299 28.0904 35.5299 26.957C35.5299 26.6407 35.5906 26.2792 35.7157 25.8575L35.7536 25.7219H34.4301L34.4036 25.7935C34.2139 26.3282 34.1191 26.829 34.1191 27.2846C34.1191 28.6816 35.1772 30.0937 37.536 30.0937H40.1982C41.1008 30.0937 41.8214 29.8037 42.2954 29.2577C42.6974 29.8188 43.3497 30.0937 44.2902 30.0937H44.3964V30.0824C44.4191 30.0824 44.4419 30.0937 44.4646 30.0937H49.1216C49.8308 30.0937 50.4413 29.8188 50.8509 29.3104C51.2339 29.8301 51.8597 30.0937 52.7129 30.0937H56.8504V30.0824C57.5368 30.056 58.1132 29.7999 58.4849 29.333C59.0499 29.8376 59.7363 30.1125 60.4341 30.1125C61.7273 30.1125 63.0357 29.1561 63.0357 27.3298C63.0357 25.7408 61.8904 24.5396 60.3734 24.5396M61.6135 27.3298C61.6135 28.2975 61.0068 28.7306 60.4038 28.7306C59.9297 28.7306 59.4367 28.4783 59.0423 28.0339C59.0878 27.7854 59.1409 27.5256 59.2509 27.134C59.486 26.3056 59.8235 25.9516 60.3772 25.9516C61.1054 25.9516 61.6173 26.5202 61.6173 27.3298" fill="#1C1E42"/>
</g>
</g>
<defs>
<clipPath id="clip0_13527_24485">
<rect width="126" height="56" fill="white"/>
</clipPath>
</defs>
</svg>
