<svg width="25" height="24" viewBox="0 0 25 24" fill="none" xmlns="http://www.w3.org/2000/svg">
<g id="Solid Search">
<path id="Vector" d="M16.6153 16.8224L16.301 16.5081L15.952 16.7835C14.5902 17.858 12.87 18.5 11 18.5C6.58172 18.5 3 14.9183 3 10.5C3 6.08172 6.58172 2.5 11 2.5C15.4183 2.5 19.0001 6.08172 19.0001 10.5C19.0001 12.3701 18.3581 14.0902 17.2834 15.4521L17.0081 15.801L17.3224 16.1154L22.5 21.2929L21.7929 22L16.6153 16.8224ZM11 3.5C7.13401 3.5 4 6.63401 4 10.5C4 14.366 7.13401 17.5 11 17.5C12.9331 17.5 14.6824 16.7171 15.9497 15.4498C17.2171 14.1824 18.0001 12.4331 18.0001 10.5C18.0001 6.63401 14.866 3.5 11 3.5Z" fill="white" stroke="white"/>
</g>
</svg>
