<svg width="20" height="20" viewBox="0 0 20 20" fill="none" xmlns="http://www.w3.org/2000/svg">
<g id="Search">
<path id="Vector" fill-rule="evenodd" clip-rule="evenodd" d="M8.75069 2.0835C5.06876 2.0835 2.08398 5.06826 2.08398 8.75016C2.08398 12.4321 5.06876 15.4168 8.75069 15.4168C10.4415 15.4168 11.9859 14.7869 13.1609 13.7497L18.0394 18.6282L18.6286 18.0389L13.7502 13.1604C14.7874 11.9854 15.4174 10.441 15.4174 8.75016C15.4174 5.06826 12.4325 2.0835 8.75069 2.0835ZM2.91732 8.75016C2.91732 5.5285 5.52899 2.91683 8.75069 2.91683C11.9723 2.91683 14.584 5.5285 14.584 8.75016C14.584 10.3611 13.9315 11.8189 12.8754 12.8749C11.8194 13.931 10.3616 14.5835 8.75069 14.5835C5.52899 14.5835 2.91732 11.9718 2.91732 8.75016Z" fill="#1C1E42"/>
</g>
</svg>
