<svg width="32" height="32" viewBox="0 0 32 32" fill="none" xmlns="http://www.w3.org/2000/svg">
<g clip-path="url(#clip0_13527_24433)">
<rect width="32" height="32" fill="#FAF9F6"/>
<path d="M16 5.60693C12.0713 5.60693 8.875 8.80321 8.875 12.7319C8.875 16.6607 12.0713 19.8569 16 19.8569C19.9287 19.8569 23.125 16.6607 23.125 12.7319C23.125 8.80321 19.9287 5.60693 16 5.60693ZM24.8649 24.5117C22.9142 22.531 20.3283 21.4403 17.5833 21.4403H14.4167C11.6718 21.4403 9.08579 22.531 7.13513 24.5117C5.19401 26.4826 4.125 29.0842 4.125 31.8375C4.125 32.2747 4.47946 32.6292 4.91667 32.6292H27.0833C27.5205 32.6292 27.875 32.2747 27.875 31.8375C27.875 29.0842 26.806 26.4826 24.8649 24.5117Z" fill="#E2DDCD"/>
</g>
<defs>
<clipPath id="clip0_13527_24433">
<rect width="32" height="32" fill="white"/>
</clipPath>
</defs>
</svg>
